<svg width="581" height="590" viewBox="0 0 581 590" fill="none" xmlns="http://www.w3.org/2000/svg">
<path d="M226.553 34H299.92C303.947 34 307.95 34.6079 311.795 35.8032L434.803 74.0439C449.467 78.6026 460.226 91.1534 462.491 106.341L527.752 544.01C530.163 560.18 519.922 575.544 504.069 579.54C493.111 582.302 481.509 579.042 473.594 570.975L157.183 248.493C147.17 238.288 143.365 223.514 147.203 209.742L188.021 63.2626C192.841 45.9655 208.596 34 226.553 34Z" stroke="white" stroke-width="4"/>
<path d="M247.553 34H320.92C324.947 34 328.95 34.6079 332.795 35.8032L455.803 74.0439C470.467 78.6026 481.226 91.1534 483.491 106.341L548.752 544.01C551.163 560.18 540.922 575.544 525.069 579.54C514.111 582.302 502.509 579.042 494.594 570.975L178.183 248.493C168.17 238.288 164.365 223.514 168.203 209.742L209.021 63.2626C213.841 45.9655 229.596 34 247.553 34Z" stroke="white" stroke-width="4"/>
<path d="M205.553 34H278.92C282.947 34 286.95 34.6079 290.795 35.8032L413.803 74.0439C428.467 78.6026 439.226 91.1534 441.491 106.341L506.752 544.01C509.163 560.18 498.922 575.544 483.069 579.54C472.111 582.302 460.509 579.042 452.594 570.975L136.183 248.493C126.17 238.288 122.365 223.514 126.203 209.742L167.021 63.2626C171.841 45.9655 187.596 34 205.553 34Z" stroke="white" stroke-width="4"/>
<path d="M123.819 126.224C126.135 122.26 131.865 122.26 134.181 126.224L257.094 336.614C259.431 340.614 256.546 345.641 251.914 345.641H6.08635C1.45384 345.641 -1.4312 340.614 0.90563 336.614L123.819 126.224Z" fill="#FFE463"/>
<rect x="295" y="0.17334" width="226" height="224.279" rx="10" fill="#1FA7FF"/>
<ellipse cx="479" cy="489.282" rx="102" ry="100.625" fill="#FF5F5F"/>
</svg>
